<?xml version="1.0" encoding="UTF-8"?>
<svg xmlns="http://www.w3.org/2000/svg" xmlns:xlink="http://www.w3.org/1999/xlink" width="60px" height="60px" viewBox="0 0 60 59" version="1.1">
<g id="surface1">
<path style=" stroke:none;fill-rule:nonzero;fill:rgb(100%,100%,100%);fill-opacity:1;" d="M 38.335938 9.21875 L 21.664062 9.21875 C 14.878906 9.222656 9.378906 14.632812 9.375 21.304688 L 9.375 37.695312 C 9.378906 44.367188 14.875 49.777344 21.664062 49.78125 L 38.335938 49.78125 C 45.121094 49.777344 50.617188 44.367188 50.625 37.695312 L 50.625 21.304688 C 50.621094 14.628906 45.121094 9.222656 38.335938 9.21875 Z M 46.472656 37.695312 C 46.472656 42.117188 42.832031 45.699219 38.335938 45.699219 L 21.664062 45.699219 C 17.167969 45.699219 13.519531 42.117188 13.527344 37.695312 L 13.527344 21.304688 C 13.519531 16.882812 17.167969 13.296875 21.664062 13.300781 L 38.335938 13.300781 C 42.832031 13.300781 46.472656 16.882812 46.472656 21.304688 Z M 46.472656 37.695312 "/>
<path style=" stroke:none;fill-rule:nonzero;fill:rgb(100%,100%,100%);fill-opacity:1;" d="M 30 19.011719 C 24.113281 19.011719 19.332031 23.71875 19.332031 29.5 C 19.332031 35.28125 24.121094 39.988281 30 39.988281 C 35.878906 39.988281 40.667969 35.28125 40.667969 29.5 C 40.667969 23.71875 35.886719 19.011719 30 19.011719 Z M 30 35.90625 C 26.402344 35.90625 23.484375 33.039062 23.484375 29.5 C 23.484375 25.964844 26.398438 23.09375 30 23.09375 C 33.597656 23.09375 36.515625 25.960938 36.515625 29.5 C 36.515625 33.035156 33.597656 35.90625 30 35.90625 Z M 40.6875 16.578125 C 42.097656 16.578125 43.238281 17.703125 43.238281 19.089844 C 43.238281 20.476562 42.097656 21.601562 40.6875 21.601562 C 39.277344 21.605469 38.128906 20.476562 38.128906 19.089844 C 38.128906 17.703125 39.085938 16.578125 40.6875 16.578125 Z M 40.6875 16.578125 "/>
</g>
</svg>
