<?xml version="1.0" encoding="UTF-8"?>
<svg xmlns="http://www.w3.org/2000/svg" xmlns:xlink="http://www.w3.org/1999/xlink" width="60px" height="60px" viewBox="0 0 60 60" version="1.1">
<g id="surface1">
<path style=" stroke:none;fill-rule:evenodd;fill:rgb(100%,100%,100%);fill-opacity:1;" d="M 30.113281 12.5 C 31.535156 12.503906 45.828125 12.550781 49.53125 13.542969 C 51.683594 14.113281 53.378906 15.804688 53.953125 17.964844 C 54.957031 21.707031 55 29.34375 55 29.949219 L 55 30.027344 C 55 30.632812 54.957031 38.292969 53.953125 42.035156 C 53.378906 44.195312 51.683594 45.886719 49.53125 46.457031 C 45.714844 47.480469 30.621094 47.5 30.019531 47.5 L 29.980469 47.5 C 29.378906 47.5 14.285156 47.480469 10.460938 46.457031 C 8.3125 45.886719 6.617188 44.195312 6.042969 42.035156 C 5.042969 38.292969 5 30.632812 5 30.027344 L 5 29.949219 C 5 29.34375 5.042969 21.707031 6.042969 17.964844 C 6.617188 15.804688 8.3125 14.113281 10.460938 13.542969 C 14.167969 12.550781 28.464844 12.503906 29.886719 12.5 Z M 24.886719 22.609375 L 24.886719 37.390625 L 37.953125 29.988281 Z M 24.886719 22.609375 "/>
</g>
</svg>
